#!OML:ASF H:\Terrain\Patient Classification 1\Animal1\Tuesday\Animal1.ASF
:FULLY-SPECIFIED
:DEGREES
2798
root 10.2532 16.2466 6.53733 -881.381 3.53509 179.173
lowerback 16.3542 -2.07901 -3.89604
upperback -0.779181 -3.61002 -2.70097
thorax -9.99088 -1.51349 0.144689
lowerneck 0.325215 -5.46036 -9.62508
upperneck -29.8661 -2.27535 11.8617
head -8.93232 0.296851 5.78146
rclavicle 3.4191e-014 3.02153e-014
rhumerus -19.2938 -27.7484 -12.4368
rradius 30.089
rwrist -36.1657
rhand -25.6721 23.1635
rfingers 7.12502
rthumb 0.8624 -6.8145
lclavicle 3.4191e-014 3.02153e-014
lhumerus -10.3597 18.5476 20.732
lradius 52.7565
lwrist -28.9767
lhand -3.42655 36.0365
lfingers 7.12502
lthumb 22.3045 64.7692
rfemur -35.1244 10.5118 27.3875
rtibia 41.5087
rfoot -14.9442 -19.8417
rtoes 12.4072
lfemur -53.1376 -6.01986 -11.5848
ltibia 54.7769
lfoot -4.24671 7.90405
ltoes 9.77698
2799
root 10.2193 16.2586 6.46132 -881.417 4.33787 179.18
lowerback 16.186 -2.21336 -4.1188
upperback -0.760685 -3.81626 -2.6287
thorax -9.84912 -1.60277 0.391007
lowerneck 0.57492 -5.25875 -9.79737
upperneck -30.1703 -1.97212 11.986
head -9.11943 0.442936 5.86333
rclavicle 0 -5.08889e-014
rhumerus -19.4534 -27.6779 -12.3917
rradius 29.9275
rwrist -35.7843
rhand -25.4446 22.9795
rfingers 7.12502
rthumb 1.08213 -6.99745
lclavicle 0 -5.08889e-014
lhumerus -10.2352 18.952 20.761
lradius 52.7722
lwrist -29.4107
lhand -3.86794 36.676
lfingers 7.12502
lthumb 21.8808 65.4588
rfemur -34.6188 10.9172 27.1075
rtibia 41.1688
rfoot -15.1564 -19.545
rtoes 12.9923
lfemur -53.1378 -6.12349 -11.3949
ltibia 53.2621
lfoot -4.01599 6.97604
ltoes 11.1217
2800
root 10.1828 16.2633 6.39081 -881.378 4.98027 179.267
lowerback 16.1465 -2.3397 -4.11097
upperback -0.848685 -3.98842 -2.56584
thorax -9.91468 -1.68498 0.496027
lowerneck 0.42441 -5.12499 -9.76116
upperneck -29.9234 -1.86227 11.9119
head -9.02151 0.466461 5.81353
rclavicle 2.78299e-014 -3.02153e-014
rhumerus -19.9345 -27.4677 -12.2185
rradius 29.8602
rwrist -35.3171
rhand -25.3424 22.7429
rfingers 7.12502
rthumb 1.18089 -7.23358
lclavicle 2.78299e-014 -3.02153e-014
lhumerus -9.83038 19.1147 20.8801
lradius 52.5924
lwrist -29.5446
lhand -3.93075 36.8237
lfingers 7.12502
lthumb 21.8205 65.6135
rfemur -34.2363 11.2875 26.9225
rtibia 40.8306
rfoot -15.2246 -19.3972
rtoes 12.9849
lfemur -53.2916 -5.99685 -11.3682
ltibia 51.8264
lfoot -3.07643 6.84164
ltoes 2.14982
2801
root 10.1481 16.2716 6.31907 -881.282 5.56358 179.576
lowerback 16.1293 -2.4711 -3.84931
upperback -0.97255 -4.12431 -2.44859
thorax -10.0471 -1.76333 0.51154
lowerneck 0.460228 -5.0392 -9.75437
upperneck -29.9049 -1.79668 11.8623
head -9.03281 0.480071 5.79419
rclavicle 2.0276e-014 -5.88403e-014
rhumerus -20.4605 -27.2685 -12.0186
rradius 29.794
rwrist -34.6224
rhand -25.1204 22.7956
rfingers 7.12502
rthumb 1.39531 -7.17959
lclavicle 2.0276e-014 -5.88403e-014
lhumerus -9.5569 19.2718 20.9835
lradius 52.6507
lwrist -29.3338
lhand -3.71281 37.1941
lfingers 7.12502
lthumb 22.0297 65.9594
rfemur -33.8702 11.7357 26.9767
rtibia 40.5315
rfoot -15.1831 -19.456
rtoes 11.2131
lfemur -53.6007 -5.78854 -11.1538
ltibia 50.4624
lfoot -2.10862 6.84284
ltoes -4.67996
2802
root 10.1153 16.2842 6.24094 -881.194 6.14975 179.627
lowerback 15.9278 -2.63563 -3.82481
upperback -1.01391 -4.33168 -2.41029
thorax -9.96991 -1.867 0.580218
lowerneck 0.416505 -4.96997 -9.62309
upperneck -29.8868 -1.76769 11.6653
head -9.03189 0.481306 5.69895
rclavicle 9.14409e-015 1.43125e-014
rhumerus -20.8603 -27.1087 -11.9071
rradius 29.6421
rwrist -33.8069
rhand -24.5677 23.1486
rfingers 7.12502
rthumb 1.9291 -6.82247
lclavicle 9.14409e-015 1.43125e-014
lhumerus -9.32456 19.2912 21.1854
lradius 52.8052
lwrist -29.526
lhand -3.68394 37.3327
lfingers 7.12502
lthumb 22.0574 66.0947
rfemur -33.5304 12.0274 26.7625
rtibia 40.2672
rfoot -15.4425 -19.2448
rtoes 10.7907
lfemur -53.8522 -5.76482 -11.1573
ltibia 49.1227
lfoot -1.76691 6.97781
ltoes -4.60471
2803
root 10.077 16.3008 6.1564 -881.088 6.6273 179.425
lowerback 15.6013 -2.85263 -3.8854
upperback -1.06949 -4.62088 -2.43927
thorax -9.83331 -2.00713 0.634888
lowerneck 0.377141 -4.86305 -9.65225
upperneck -29.7099 -1.71066 11.5865
head -8.97184 0.487177 5.6682
rclavicle 1.39149e-014 -3.65764e-014
rhumerus -21.2099 -27.1674 -11.7445
rradius 29.3953
rwrist -32.853
rhand -24.2046 22.9879
rfingers 7.12502
rthumb 2.27973 -6.97969
lclavicle 1.39149e-014 -3.65764e-014
lhumerus -9.14074 19.0394 21.2819
lradius 52.8575
lwrist -28.98
lhand -3.72027 37.966
lfingers 7.12502
lthumb 22.0226 66.7322
rfemur -33.217 12.0798 26.2886
rtibia 40.0041
rfoot -15.7137 -18.9073
rtoes 11.7488
lfemur -54.0335 -5.88427 -11.4236
ltibia 47.7763
lfoot -1.76999 7.34315
ltoes -3.39856
2804
root 10.0369 16.3118 6.06896 -880.974 7.03096 179.473
lowerback 15.369 -3.0622 -3.71252
upperback -1.18303 -4.86488 -2.34405
thorax -9.82357 -2.13581 0.688133
lowerneck 0.519254 -4.71036 -10.0224
upperneck -29.6515 -1.56594 11.7309
head -8.98605 0.550902 5.78347
rclavicle 1.90833e-014 8.5875e-014
rhumerus -21.5477 -26.9236 -11.531
rradius 29.1804
rwrist -32.3068
rhand -24.2249 23.0743
rfingers 7.12502
rthumb 2.26016 -6.89348
lclavicle 1.90833e-014 8.5875e-014
lhumerus -9.12495 18.9481 21.4219
lradius 52.8484
lwrist -28.5423
lhand -3.39793 38.3603
lfingers 7.12502
lthumb 22.332 67.0897
rfemur -32.8552 12.1982 26.1012
rtibia 39.7842
rfoot -15.6494 -18.8615
rtoes 10.7869
lfemur -54.1601 -5.88308 -11.4348
ltibia 46.3855
lfoot -1.59575 7.8096
ltoes -1.31539
2805
root 10.0092 16.3164 5.98247 -880.935 7.48662 179.687
lowerback 15.3069 -3.24009 -3.65581
upperback -1.30333 -5.09137 -2.15399
thorax -9.90051 -2.24516 0.91373
lowerneck 0.480964 -4.52328 -10.1157
upperneck -29.4964 -1.41618 11.5555
head -8.94847 0.617298 5.7252
rclavicle -3.57812e-014 1.59028e-015
rhumerus -21.796 -26.4344 -11.3976
rradius 28.957
rwrist -31.9004
rhand -24.2281 23.6403
rfingers 7.12502
rthumb 2.25702 -6.3275
lclavicle -3.57812e-014 1.59028e-015
lhumerus -9.06317 19.5053 21.6962
lradius 52.768
lwrist -29.1197
lhand -2.99756 38.1591
lfingers 7.12502
lthumb 22.7163 66.8419
rfemur -32.4207 12.5153 26.1156
rtibia 39.5766
rfoot -15.5637 -18.9111
rtoes 9.31152
lfemur -54.1423 -5.6628 -11.4012
ltibia 44.9332
lfoot -0.656821 8.22229
ltoes -3.75918
2806
root 9.98842 16.3339 5.89943 -880.958 8.0291 179.618
lowerback 15.2829 -3.39859 -3.94714
upperback -1.42845 -5.35884 -2.08017
thorax -9.98246 -2.35272 1.21856
lowerneck 0.375297 -4.34994 -9.91262
upperneck -29.277 -1.3085 11.1869
head -8.88027 0.648093 5.54309
rclavicle 1.59028e-014 -5.08889e-014
rhumerus -22.0818 -26.1593 -11.2703
rradius 28.7182
rwrist -31.1892
rhand -24.0138 23.8301
rfingers 7.12502
rthumb 2.46407 -6.13539
lclavicle 1.59028e-014 -5.08889e-014
lhumerus -8.88174 19.8467 21.8934
lradius 52.6743
lwrist -29.5967
lhand -3.19115 37.9598
lfingers 7.12502
lthumb 22.5305 66.6652
rfemur -32.0173 12.976 25.7859
rtibia 39.3488
rfoot -15.466 -18.9684
rtoes 8.41707
lfemur -54.047 -5.39282 -11.7665
ltibia 43.4586
lfoot 0.419711 8.47969
ltoes -8.04719
2807
root 9.96608 16.3568 5.81322 -881.012 8.65894 179.491
lowerback 15.1708 -3.48259 -4.25327
upperback -1.5122 -5.52502 -2.08365
thorax -9.97601 -2.41437 1.41713
lowerneck 0.231634 -4.25098 -9.83166
upperneck -28.9791 -1.26829 11.0401
head -8.75989 0.639609 5.46289
rclavicle -1.94809e-014 3.33958e-014
rhumerus -22.5937 -25.8973 -11.077
rradius 28.5352
rwrist -30.7314
rhand -23.7398 23.9692
rfingers 7.12502
rthumb 2.7287 -5.99313
lclavicle -1.94809e-014 3.33958e-014
lhumerus -8.70439 19.553 22.0087
lradius 52.7821
lwrist -29.3498
lhand -3.8548 37.914
lfingers 7.12502
lthumb 21.8934 66.6953
rfemur -31.5707 13.4543 25.3671
rtibia 39.0781
rfoot -15.4777 -18.8532
rtoes 8.31101
lfemur -53.8797 -4.96335 -12.3277
ltibia 42.0709
lfoot 0.875152 8.73709
ltoes -9.34907
